<?xml version="1.0"?>
<svg xmlns:rdf="http://www.w3.org/1999/02/22-rdf-syntax-ns#" xmlns="http://www.w3.org/2000/svg" xmlns:cc="http://creativecommons.org/ns#" xmlns:dc="http://purl.org/dc/elements/1.1/" xmlns:svg="http://www.w3.org/2000/svg" id="svg2" viewBox="0 0 550 600" version="1.1">
  <g id="layer1" transform="translate(0 -452.36)">
    <path id="path3806" d="m176.41 1043c-6.026-6.6672-11.103-14.529-14.023-21.715-2.8253-6.9531-5.8205-21.106-4.7032-22.223 0.4575-0.4575 2.2762-0.4175 4.0415 0.089 7.0185 2.0129 14.241-2.8802 16.34-11.07 0.6864-2.6782 1.5595-4.8694 1.9402-4.8694s1.9696 1.6875 3.5307 3.75 3.6395 4.6224 4.6187 5.6885c4.2968 4.6789 0.2188 12.151-8.8111 16.144-4.3895 1.9412-5.253 2.7781-5.778 5.5997-1.1002 5.9129 1.743 18.206 6.6163 28.606 1.1052 2.3587 1.7842 4.5137 1.509 4.789-0.2753 0.2753-2.6517-1.8795-5.281-4.7885z"/>
    <path id="path3804" d="m216.59 1044.8c-10.175-3.5553-20.714-10.018-28.601-17.539-3.876-3.6958-7.0473-7.2277-7.0473-7.8487 0-0.6377 1.632-1.1297 3.75-1.1305 5.2716 0 10.427-2.8742 12.562-6.9985 1.4097-2.7224 1.7208-5.1108 1.4002-10.75-0.2266-3.9875-0.2179-7.25 0.019-7.25 0.2373 0 2.3073 1.519 4.5998 3.3755 2.2926 1.8565 5.6243 4.1147 7.4038 5.0182 6.8311 3.4682 5.7861 11.007-3.2209 23.238-1.9158 2.6015 2.7631 9.2826 11.955 17.07 2.7278 2.3111 4.7378 4.424 4.4665 4.6952-0.2712 0.2713-3.5506-0.5751-7.2874-1.8809z"/>
    <path id="path3802" d="m151.18 1023c-7.419-12.295-10.238-21.847-10.238-34.69 0-10.96 0.1944-11.295 5.2303-9.0408 4.4468 1.9909 6.1004 1.7628 9.5173-1.3128l2.2476-2.023 4.7524 2.0936c2.6139 1.1515 5.5399 2.3398 6.5024 2.6407 2.4922 0.77907 2.1923 2.0366-1.4843 6.224-3.9077 4.4505-8.2009 6.3858-14.166 6.3858-3.5074 0-4.594 0.4072-5.0675 1.899-0.8495 2.6765 1.0925 14.107 4.0697 23.954 1.389 4.5942 2.3593 8.5192 2.1563 8.7222s-1.7871-1.9809-3.5202-4.8531z"/>
    <path id="path3800" d="m330.28 1024.3c-11.569-2.4342-21.537-11.527-26.323-24.011-0.7379-1.925-1.6934-3.9013-2.1232-4.3917-0.4377-0.4995-4.2165 0.8864-8.5897 3.1501-12.905 6.68-19.85 8.4213-35.84 8.9854-12.255 0.4323-15.168 0.2114-23-1.7446-14.862-3.7115-27.376-11.091-38.968-22.979l-6-6.1533 3-2.4244c3.8402-3.1033 13.662-7.0444 19.88-7.9768l4.8358-0.72518-0.8535 3.3797c-1.2907 5.1107-0.8155 11.539 1.0652 14.41 3.7973 5.7954 12.394 8.1654 18.383 5.0682 7.9637-4.1182 10.755-21.645 6.1625-38.699-0.5844-2.1701-0.8389-4.3074-0.5656-4.7496 0.2733-0.44216 3.5559-0.4135 7.2947 0.0637 12.329 1.5736 26.728-0.87788 37.706-6.4196 8.6844-4.3839 18.67-14.671 21.433-22.082 2.5325-6.7901 2.8763-17.059 0.7421-22.167-5.1909-12.423-24.208-6.8038-28.581 8.446-0.751 2.6187-0.5452 4.2533 0.9654 7.6682 1.8278 4.1321 1.8336 4.3401 0.122 4.3401-2.3409 0-6.4365-3.8392-8.6543-8.1126-0.9791-1.8866-1.9615-6.5254-2.2175-10.47-0.5431-8.3719 1.3863-13.76 7.253-20.253 3.4529-3.822 14.178-10.164 17.189-10.164 2.2763 0 1.5184-5.324-1.6647-11.694-5.3779-10.762-15.535-18.924-31.495-25.31-4.4-1.7605-8.9-3.5743-10-4.0306-3.5954-1.4917 14.657-1.0165 21.324 0.55524 18.269 4.307 29.342 14.792 36.23 34.306 2.5783 7.3047 2.9212 7.7558 7.8204 10.287 17.842 9.2193 34.126 31.742 34.126 47.199 0 6.079-3.104 14.486-9.4762 25.667-10.006 17.557-10.962 20.274-10.908 31.021 0.052 10.24 2.2142 20.324 5.5076 25.682 1.2661 2.0601 3.568 3.7981 6.5264 4.928 11.968 4.5706 22.766-5.7739 19.425-18.61-1.6619-6.3868-5.8459-10.31-11.277-10.573-5.237-0.25397-5.6239-2.0409-1.0236-4.7277 4.8606-2.8388 9.6804-1.6102 14.861 3.7879 7.7971 8.1247 9.4199 20.241 4.2207 31.513-3.6159 7.8391-7.1004 11.51-14.168 14.927-6.869 3.3207-17.074 4.6135-24.344 3.0837z"/>
    <path id="path3798" d="m129 994.75c-1.8218-7.3842-2.5037-30.167-1.1378-38.011 1.2269-7.0449 4.7577-17.507 5.8933-17.462 0.373 0.0148 1.8031 1.8583 3.1781 4.0967 3.9877 6.4916 9.2355 8.3574 15.05 5.3508 1.6227-0.83912 2.971-1.4016 2.9963-1.25 0.7519 4.5088 0.4549 17.447-0.4135 18.01-2.1402 1.3884-8.1667 0.76282-11.894-1.2347-2.0524-1.1-4.1642-2-4.6929-2-1.698 0-5.0239 13.42-6.1028 24.624-1.3215 13.724-1.3887 13.908-2.8768 7.8761z"/>
    <path id="path3796" d="m224.38 984.78c-1.8425-1.3936-1.7839-1.4698 1.1539-1.5 4.9744-0.0511 6.7992-2.9231 6.1086-9.6142-0.9908-9.5998-7.8668-16.751-16.107-16.751-3.477 0-6.4609 1.259-15.702 6.6254-6.2752 3.644-13.375 7.319-15.778 8.1667-9.7464 3.4387-17.684 0.91372-21.153-6.7294-4.185-9.2191-1.8624-17.089 8.0653-27.327 6.6282-6.8357 10.901-13.747 10.949-17.711 0.012-0.99496 0.4719-1.5309 1.0219-1.191 0.55 0.33992 0.9972 2.954 0.9937 5.809 0 4.162-0.8971 6.9478-4.5 14.054-4.6317 9.1353-5.368 12.363-3.2937 14.437 3.0455 3.0455 11.208 0.39418 24.361-7.9128 6.2008-3.9162 7.6653-4.4103 14.023-4.7314 8.2265-0.41542 13.335 1.5817 17.889 6.9939 3.6069 4.2865 4.3092 6.3622 5.098 15.067 1.5259 16.839-5.2171 28.3-13.129 22.315z"/>
    <path id="path3794" d="m521.44 973.01c-9.2634-4.9274-20.575-16.956-32.542-34.605-15.463-22.805-22.192-29.065-38.167-35.505-8.5402-3.443-36.475-10.646-41.288-10.646-3.4578 0-3.0602 3.1631 0.5022 3.9947 1.8888 0.44093 2.7376 1.5445 3.4947 4.5438 1.3051 5.1699 2.2095 6.4615 4.5246 6.4615 1.0486 0 3.3071 1.3692 5.019 3.0426 3.8315 3.7453 5.9707 3.3426 11.239-2.1161 3.8201-3.958 4.7482-3.7528 4.396 0.97228-0.2538 3.4061 1.5739 3.6009 5.1954 0.55369l3.1258-2.6303-0.01 2.3389c-0.011 2.7664-4.5214 12.839-5.7485 12.839-0.4679 0-2.5136 1.5232-4.546 3.3849-3.1742 2.9074-3.6968 4.0006-3.7052 7.75-0.01 2.5124-1.0472 6.5934-2.454 9.6151-2.4829 5.333-4.5363 6.8309-4.5363 3.309 0-3.708-2.2403-3.3965-5.7225 0.79568-4.7425 5.7094-6.5153 5.5859-4.7349-0.32986 1.4639-4.8643 0.8002-6.0858-2.7028-4.974-1.8018 0.57189-2.022 0.38349-1.3853-1.1854 3.7611-9.2675 4.5011-16.234 1.8181-17.114-0.6751-0.22156-2.3671 0.82681-3.76 2.3297-1.3928 1.5029-2.6794 2.5495-2.859 2.3258-0.1796-0.22371-0.8938-3.6847-1.587-7.691-3.1561-18.24-14.283-29.58-35.422-36.101-6.9096-2.1315-12.645-2.7506-12.644-1.3648 0.0004 0.4125 0.7146 4.125 1.5872 8.25 1.0104 4.777 1.3614 9.4968 0.9669 13-0.6461 5.737-2.5116 12-3.5743 12-0.3397 0-1.846-4.3488-3.3474-9.664-5.7712-20.431-11.069-27.97-30.812-43.844-1.5223-1.224-1.5466-1.844-0.2619-6.6706 1.7423-6.5455 1.7797-8.9418 0.2219-14.205-1.7798-6.0136-8.7602-12.261-20.241-18.116-9.0653-4.6229-20.773-13.557-19.488-14.872 0.3036-0.31086 3.2286 0.53508 6.5 1.8798 6.3304 2.6023 19.689 3.5289 20.971 1.4546 0.3528-0.57085-1.7989-4.0584-4.7814-7.75-7.8324-9.6944-11.206-14.948-16.661-25.948-9.2231-18.598-9.3984-23.509-0.3969-11.12 7.8057 10.744 19.042 21.399 30.498 28.921 8.7707 5.7592 11.818 7.0256 11.818 4.9117 0-0.56221-1.862-4.7247-4.1379-9.25-7.9602-15.828-12.043-29.882-13.43-46.228-0.7242-8.5352 0.2953-9.33 2.5655-2 2.4746 7.9899 12.951 28.584 19.129 37.605 6.8993 10.073 18.338 22.421 23.874 25.77 1.925 1.1647 5.1372 2.1192 7.1382 2.1213 4.752 0.005 20.36 4.5497 24.847 7.2349 6.1895 3.7044 12.164 8.9716 15.598 13.751 3.2284 4.4937 3.5813 4.6876 10.471 5.754 4.8893 0.7568 10.008 2.5466 16.288 5.6952 9.6473 4.8368 12.667 5.3501 20.247 3.4416 3.935-0.99085 4.7284-0.90046 6.584 0.75 3.6157 3.2159 5.7822 9.3332 5.7999 16.377 0.019 7.4005-1.0574 12.04-4.6967 20.25-2.579 5.8178-4.2758 7.3385-4.2758 3.8318 0-5.1217-2.4244-6.4802-5.5-3.0818-2.6219 2.8972-3.1549 2.5343-3.8627-2.6298-0.9667-7.0532-4.0633-11.218-10.549-14.188-3.0737-1.4074-7.9073-2.7514-10.741-2.9866-4.6194-0.38335-5.282-0.18269-6.3997 1.9382-1.9685 3.7351-3.2722 3.9914-5.5801 1.097-1.958-2.4556-2.3586-2.5739-4.6195-1.3639-2.1012 1.1246-2.938 1.0857-5.5344-0.25694-3.8785-2.0056-9.3581-2.4992-9.9267-0.89409-0.9798 2.7655 22.956 15.462 46.713 24.778 18.309 7.1798 32.516 14.447 38.442 19.663 5.8847 5.1799 11.351 12.942 21.018 29.842 11.808 20.644 17.633 28.067 28.04 35.728 4.4692 3.2903 0.9383 2.7178-6-0.97284z"/>
    <path id="path3792" d="m383.19 829.33c-3.5025-2.915-11.677-6.0745-15.716-6.0745-2.9578 0-2.9591-0.0349 0.1882 5.0059l2.1888 3.5059 8.2164 0.0686 8.2164 0.0686-3.0934-2.5746z" fill="#f00"/>
    <path id="path3790" d="m109.45 941.94c-1.7016-13.074 2.0464-29.251 10.004-43.178 9.4513-16.542 25.144-34.963 59.725-70.109 11.418-11.605 20.76-21.445 20.76-21.868 0-0.42251-1.35-2.3058-3-4.185-2.4374-2.7761-2.9958-4.301-2.978-8.132 0.028-6.0731 2.7085-11.893 7.3559-15.974 4.3675-3.8347 6.1511-4.1784 5.1453-0.99142-1.8267 5.7879-1.7334 7.4893 0.4963 9.0511 4.0007 2.8022 9.1577-0.97607 10.928-8.0063 1.5741-6.2512-0.1435-14.517-3.5779-17.219-2.9067-2.2864-4.1875-1.9724-10.49 2.5728-9.3576 6.7477-17.005 20.127-19.778 34.601-3.4743 18.138-1.5162 14.826-18.893 31.952-20.239 19.947-26.084 25.255-26.905 24.434-1.1119-1.1119 2.4727-29.38 5.2795-41.633 6.7214-29.344 22.322-66.052 42.925-101 14.815-25.132 15.63-26.758 16.779-33.466 1.5093-8.8113-0.103-16.812-4.2173-20.926-5.7005-5.7005-16.481-2.9517-19.059 4.8597-0.8197 2.4837-0.8333 3.995-0.049 5.4602 1.8736 3.5009 4.2399 4.1015 10.085 2.5597 2.9485-0.77779 5.5961-1.1789 5.8836-0.89138 1.2404 1.2404-4.3537 18.726-8.9272 27.904-5.4823 11.002-13.643 22.288-30.811 42.613-28.738 34.022-39.039 56.816-41.75 92.387-0.8254 10.829-1.768 9.3106-3.5082-5.6523-1.5425-13.263-0.6841-30.976 1.9991-41.25 3.0884-11.826 10.719-26.146 24.032-45.098 16.994-24.193 25.701-40.437 29.507-55.051 1.9553-7.507 1.9275-14.571-0.1041-26.449-2.0645-12.07-2.2848-29.617-0.4742-37.779 0.7661-3.4536 1.7165-6.4793 2.112-6.7237 0.3955-0.24445 4.9437 0.23835 10.107 1.0729 45.512 7.3559 71.717 25.181 87.953 59.827 2.1167 4.5169 7.6923 19.578 12.39 33.47 8.4651 25.031 12.423 34.633 18.549 45.002 2.9184 4.9397 2.9849 5.238 0.8338 3.737-8.1556-5.6907-20.681-24.621-36.966-55.867-13.552-26.003-21.828-38.823-30.704-47.561-11.186-11.013-24.594-16.825-41.167-17.846-8.4347-0.51942-9.7663-0.36776-11.875 1.3525-2.5434 2.075-3.2602 6.997-1.2039 8.2679 0.644 0.39805 5.1143 0.78496 9.9339 0.85979 19.201 0.29813 35.059 9.2065 47.735 26.816 2.4257 3.3698 4.4036 7.1948 4.3953 8.5-0.033 5.2875-7.0838 24.791-14.915 41.261-2.8476 5.9885-4.9641 11.444-4.7034 12.124 0.2608 0.67954 2.1255 1.5453 4.1438 1.924 4.4277 0.83065 11.734 7.2471 14.824 13.019 1.8446 3.4451 2.1657 5.6762 2.1657 15.045 0 10.069-0.2586 11.594-3.0558 18.019-1.6807 3.8604-5.0117 9.9354-7.4023 13.5-5.4913 8.1882-25.825 28.499-46.542 46.49-18.582 16.137-40.131 37.372-46.693 46.014-10.81 14.235-18.901 30.778-22.317 45.631-2.9391 12.777-3.1263 13.084-3.9789 6.5341z"/>
    <path id="path3788" d="m189.47 928.48c0.4787-6.1195 0.3008-10.777-0.5497-14.39-1.4282-6.0666-4.5704-12.842-5.9558-12.842-0.5109 0-2.7609 3.5211-4.9999 7.8248-7.756 14.908-18.899 25.809-22.541 22.05-1.0442-1.0777-6.2812-15.275-11.02-29.875-1.3863-4.2708 40.14-54 45.093-54 4.3024 0 25.433 23.573 31.384 35.012 3.8931 7.483 4.1825 8.6523 5.4932 22.194 0.7609 7.862 1.8624 15.532 2.4477 17.044 0.6548 1.692 0.6939 2.75 0.1015 2.75-2.0931 0-6.339-8.8441-10.655-22.193-4.1059-12.7-4.9705-14.469-9.1828-18.782-3.1886-3.2653-6.5063-5.4457-10.556-6.9373-7.8374-2.8868-8.5831-2.0937-6.289 6.6888 3.622 13.866 13.683 30.646 23.411 39.044 2.9117 2.5138 4.9543 4.8506 4.539 5.1929-0.4152 0.34232-3.68 1.1926-7.255 1.8896-5.3019 1.0337-14.539 4.1873-22.836 7.7967-1.0876 0.47313-1.2044-1.1011-0.6282-8.4669z"/>
    <path id="path3786" d="m221.97 858.57c-0.017-1.2016 0.6-5.2516 1.3715-9 3.4432-16.729 2.8833-26.315-1.5367-26.315-2.3002 0-7.2348 5.0619-8.9343 9.1648-0.6459 1.5594-1.4976 2.8352-1.8926 2.8352-0.7704 0-3.0392-4.49-3.0392-6.0148 0-1.8546 24.999-25.795 25.724-24.634 1.3085 2.098 1.5224 20.416 0.3192 27.326-1.2692 7.288-5.4946 18.316-9.5113 24.823-2.0048 3.248-2.4748 3.5893-2.5001 1.8154z"/>
    <path id="path3784" d="m255.89 804.25c-0.1427-4.6577-2.1852-11.244-3.637-11.728-0.6404-0.21346-2.3276 1.5969-3.7494 4.0229-2.894 4.9383-6.1257 8.2548-6.8405 7.02-0.2595-0.44833-0.7826-2.9587-1.1625-5.5785-0.5643-3.8917-0.2026-5.9836 1.9769-11.431 2.0077-5.0183 2.8019-9.1029 3.21-16.509 0.5303-9.6246 0.5844-9.8027 2.461-8.1043 2.8614 2.5895 8.4403 14.976 9.8225 21.808 1.2885 6.3687 0.7057 19.408-0.998 22.328-0.7742 1.3269-0.9979 0.94946-1.083-1.8277z"/>
    <path id="path3782" d="m258.23 752.22c-3.4473-7.0251-7.4694-11.592-9.2436-10.495-0.7153 0.44206-0.863 2.4554-0.4234 5.7696 0.6055 4.5644 0.4963 5.0219-1.0571 4.4258-0.9529-0.36565-2.3662-0.66482-3.1408-0.66482-0.7745 0-2.6846-2.815-4.2446-6.2555-1.6011-3.5311-5.3097-8.9269-8.5152-12.389l-5.6788-6.1338 4.0254-1.6107c4.7138-1.8861 7.0866-1.9878 12.34-0.52919 4.5728 1.2697 12.078 7.8855 14.638 12.904 2.7526 5.3956 5.1766 14.566 4.8225 18.244-0.3064 3.1817-0.4023 3.0928-3.5219-3.2644z"/>
    <path id="path3023" d="m104.14 730.74c-14.255-19.373-24.101-43.376-28.709-69.989-1.7126-9.8909-3.8158-39.896-2.9809-42.526 0.31801-1.002 2.8517-2.302 6.4198-3.294 8.6253-2.398 12.552-8.1256 8.2431-12.025-4.3404-3.928-13.166-0.34998-19.387 7.8594-4.7912 6.3231-9.8692 16.648-13.439 27.323-3.2397 9.6896-4.0741 9.1001-2.4007-1.6962 2.6657-17.199 9.9573-39.003 17.7-52.93 1.9229-3.4587 3.339-6.76 3.1469-7.3363-0.19209-0.57629-5.3062-2.7058-11.365-4.7323-7.8717-2.633-13.458-5.3099-19.575-9.3798-8.0547-5.3594-19.387-16.157-21.916-20.881-1.3643-2.5493-1.0024-2.363 7.4288 3.8229 3.226 2.3669 8.851 5.7642 12.5 7.5494 6.2677 3.0665 7.2426 3.2452 17.635 3.2322 9.9277-0.0124 11.596-0.28798 17.117-2.8271 7.4506-3.4265 12.077-8.1023 20.935-21.159 17.701-26.09 27.431-35.264 44.918-42.348 5.2946-2.1447 7.2834-3.6197 10.321-7.6545 6.6565-8.8414 15.207-13.223 30.432-15.596 11.358-1.7699 12.324-0.88514 3.6482 3.3406-8.7151 4.2448-13.872 9.3503-13.872 13.733 0 4.2267 1.4471 4.5007 6.2643 1.1864 2.3546-1.62 7.1959-4.222 10.758-5.7821 5.7471-2.5169 7.6611-2.8391 16.977-2.8584 10.278-0.0212 17.664 1.5947 16.428 3.5944-0.3005 0.48616-2.1677 0.88394-4.1494 0.88394-9.9495 0-23.907 8.5452-23.111 14.149 0.3276 2.3064 0.4687 2.3318 11.332 2.0433 18.69-0.49646 29.417 3.8183 43.25 17.397 8.6438 8.4844 10.768 12.125 5 8.5711-6.1541-3.7922-13.345-7.0594-17.792-8.0843-8.5258-1.9647-19.379-0.84207-16.449 1.7015 0.5454 0.47353 4.3068 2.1277 8.3586 3.6759 9.3768 3.5829 20.958 11.313 26.399 17.621 4.9203 5.7037 11.734 16.612 11.734 18.786 0 0.82369-2.9419-1.488-6.5375-5.1371-4.2113-4.2738-8.836-7.7662-12.997-9.8145-6.6542-3.2759-13.435-4.3309-14.179-2.2061-0.2317 0.66132 2.2264 3.1516 5.4625 5.5338 24.99 18.397 38.243 38.937 37.059 57.438l-0.3075 4.8035-3.8531-9.7688c-6.3913-16.204-16.548-27.526-21.216-23.651-1.3137 1.0902-1.5508 2.4919-1.1229 6.6377 0.7247 7.0218 5.1764 15.708 14.249 27.805 8.5813 11.441 12.741 19.422 14.902 28.588 1.6178 6.8632 2.107 26.444 0.6828 27.324-0.472 0.29171-1.3808-2.6339-2.0195-6.5014-2.8443-17.223-11.036-35.257-19.182-42.23-5.1177-4.3805-7.3622-4.9698-10.194-2.6761-2.9351 2.3773-2.87 8.1087 0.1968 17.324 1.2443 3.7393 2.1037 6.951 1.9096 7.1373-0.194 0.18621-4.1778-2.5429-8.8528-6.0647-16.079-12.112-35.725-20.634-55.364-24.013-5.0246-0.86467-9.2916-1.7242-9.4823-1.9102-0.1906-0.18592 0.789-3.182 2.177-6.6581 3.8417-9.6208 4.9373-15.129 4.4853-22.551-0.4628-7.6018-2.3358-12.18-7.4062-18.104-6.7831-7.9246-20.957-12.139-29.651-8.8158-9.3799 3.585-13.569 10.727-14.687 25.04l-0.7116 9.1108-2.3491-5c-1.7964-3.8234-2.3573-6.765-2.3834-12.5-0.056-12.306 5.2697-20.75 16.296-25.836 4.9029-2.2616 6.9036-2.5751 16.576-2.5973 12.995-0.0298 19.455 2.0205 27.844 8.8374 7.9853 6.489 12.56 15.351 16.698 32.346 1.5023 6.1695 3.433 5.3715 5.3363-2.2055 7.5182-29.93-10.516-59.456-39.478-64.632-9.0387-1.6153-18.425-0.003-28.224 4.8474-10.045 4.9722-21.875 16.968-26.863 27.24-7.8858 16.238-9.0151 33.518-3.0111 46.073 5.5731 11.654 12.74 16.848 27.43 19.879 3.1529 0.65054 5.9407 1.5196 6.1951 1.9312 0.5629 0.91089-3.2711 16.302-4.3344 17.399-0.4169 0.43028-5.7784-0.45213-11.915-1.9609-13.905-3.419-14.173-3.264-11.95 6.9088 0.8738 3.9984 2.5598 9.8508 3.7467 13.005 2.6026 6.9176 9.6593 17.764 11.557 17.764 4.4155 0 13.969-20.339 17.614-37.5 1.7374-8.179 1.4646-31.944-0.4874-42.461-0.8637-4.6535-1.3766-8.6547-1.1397-8.8915 1.3273-1.3273 8.5665 20.496 11.105 33.478 2.2739 11.628 2.3019 33.639 0.058 45.81-2.2239 12.063-7.0041 26.398-12.575 37.708-4.6942 9.5308-5.9127 10.623-10.55 9.4593-5.06-1.27-19.877-23.728-29.582-44.838-6.8351-14.867-8.3114-13.215-8.25 9.234 0.0543 19.858 3.5532 39.715 10.799 61.289 1.4389 4.284 2.4361 8.329 2.2162 8.989-0.22 0.65994-2.7142-1.9451-5.5426-5.789z"/>
  </g>
  <metadata>
    <rdf:RDF>
      <cc:Work>
        <dc:format>image/svg+xml</dc:format>
        <dc:type rdf:resource="http://purl.org/dc/dcmitype/StillImage"/>
        <cc:license rdf:resource="http://creativecommons.org/licenses/publicdomain/"/>
        <dc:publisher>
          <cc:Agent rdf:about="http://openclipart.org/">
            <dc:title>Openclipart</dc:title>
          </cc:Agent>
        </dc:publisher>
        <dc:title>Red_Eye_Dragon_Tattoo</dc:title>
        <dc:date>2012-02-19T05:15:51</dc:date>
        <dc:description>Red eye dragon tattoo</dc:description>
        <dc:source>http://openclipart.org/detail/168396/red_eye_dragon_tattoo-by-ivoermejo</dc:source>
        <dc:creator>
          <cc:Agent>
            <dc:title>ivoermejo</dc:title>
          </cc:Agent>
        </dc:creator>
        <dc:subject>
          <rdf:Bag>
            <rdf:li>Red eye</rdf:li>
            <rdf:li>black and white</rdf:li>
            <rdf:li>clip art</rdf:li>
            <rdf:li>clipart</rdf:li>
            <rdf:li>dragon</rdf:li>
            <rdf:li>tattoo</rdf:li>
          </rdf:Bag>
        </dc:subject>
      </cc:Work>
      <cc:License rdf:about="http://creativecommons.org/licenses/publicdomain/">
        <cc:permits rdf:resource="http://creativecommons.org/ns#Reproduction"/>
        <cc:permits rdf:resource="http://creativecommons.org/ns#Distribution"/>
        <cc:permits rdf:resource="http://creativecommons.org/ns#DerivativeWorks"/>
      </cc:License>
    </rdf:RDF>
  </metadata>
</svg>
